<svg xmlns="http://www.w3.org/2000/svg" width="260" height="14.933">
  <g data-name="Group 13" fill="#232323">
  <path data-name="Path 28" d="M9.438 7.093a3.1 3.1 0 001.5-2.891c0-2.538-1.789-3.931-4.431-3.931H0v14.393h6.509c3.162 0 4.951-1.54 4.951-4.18a3.44 3.44 0 00-2.022-3.391zm-6.464-4.08h3.6a1.377 1.377 0 011.518 1.476 1.5 1.5 0 01-1.518 1.6h-3.6zm3.515 8.922H2.974v-3.37H6.26c1.393 0 2.329.458 2.329 1.726 0 1.066-.685 1.648-2.1 1.648z"/><path data-name="Path 29" d="M21.882 9.277a2.543 2.543 0 01-2.64 2.724 2.507 2.507 0 01-2.622-2.724V.271h-3.038v9.006c0 3.681 2.578 5.511 5.657 5.511 3.119 0 5.7-1.831 5.7-5.511V.271h-3.057z"/><path data-name="Rectangle 41" d="M28.077.271h3.058v14.393h-3.058z"/><path data-name="Path 30" d="M37.498.271h-3.036v14.392h9.9v-2.808h-6.864z"/><path data-name="Path 31" d="M50.893.271h-4.408v14.393h4.409c4.326 0 7.779-2.787 7.779-7.238-.001-4.431-3.412-7.155-7.78-7.155zm.022 11.606h-1.353v-8.8h1.353c2.6 0 4.7 1.56 4.7 4.387s-2.102 4.413-4.7 4.413z"/><path data-name="Path 32" d="M76.745 7.093a3.1 3.1 0 001.5-2.891c0-2.538-1.789-3.931-4.43-3.931h-6.509v14.393h6.509c3.162 0 4.95-1.54 4.95-4.18a3.44 3.44 0 00-2.02-3.391zm-6.468-4.08h3.6a1.377 1.377 0 011.518 1.476 1.5 1.5 0 01-1.518 1.6h-3.6zm3.515 8.922h-3.515v-3.37h3.286c1.393 0 2.329.458 2.329 1.726 0 1.066-.685 1.648-2.1 1.648z"/><path data-name="Path 33" d="M84.111 8.673h4.577v-2.7h-4.577V3.079h6.448V.271h-9.484v14.392h9.629v-2.808h-6.593z"/><path data-name="Path 34" d="M97.19.271l-5.282 14.393h3.2l.936-2.724h5.533l.956 2.724h3.222L100.411.271zm-.229 9.006l1.831-5.346 1.871 5.346z"/><path data-name="Path 35" d="M114.931 9.277a2.544 2.544 0 01-2.642 2.724 2.506 2.506 0 01-2.62-2.724V.271h-3.037v9.006c0 3.681 2.579 5.511 5.657 5.511 3.12 0 5.7-1.831 5.7-5.511V.271h-3.056z"/><path data-name="Path 36" d="M119.923 3.079h4.139v11.584h3.036V3.079h4.118V.271h-11.293z"/><path data-name="Rectangle 42" d="M133.338.271h3.058v14.393h-3.058z"/><path data-name="Path 37" d="M139.722 14.663h3.037V8.902h4.264V6.157h-4.264V3.079h6.011V.271h-9.048z"/><path data-name="Path 38" d="M159.003 9.277a2.544 2.544 0 01-2.642 2.724 2.506 2.506 0 01-2.62-2.724V.271h-3.037v9.006c0 3.681 2.579 5.511 5.657 5.511 3.12 0 5.7-1.831 5.7-5.511V.271h-3.056z"/><path data-name="Path 39" d="M168.238.271h-3.039v14.392h9.9v-2.808h-6.864z"/><path data-name="Path 40" d="M202.658.271h-6.156v14.393h3.036v-5.22h3.12c3.12 0 5.2-1.54 5.2-4.577s-2.08-4.596-5.2-4.596zm.063 6.531h-3.2V3.013h3.2c1.353 0 2.267.582 2.267 1.871 0 1.314-.914 1.918-2.267 1.918z"/><path data-name="Path 41" d="M212.537.271l-5.282 14.393h3.2l.936-2.724h5.537l.957 2.724h3.223L215.764.271zm-.229 9.006l1.831-5.346 1.871 5.346z"/><path data-name="Path 42" d="M228.407 2.808a3.588 3.588 0 013.286 2.017l2.2-1.644a5.765 5.765 0 00-5.47-3.182c-3.889 0-6.738 2.6-6.738 7.466 0 4.909 2.871 7.466 6.717 7.466a6.025 6.025 0 005.429-3.015l-2.226-1.622a3.578 3.578 0 01-3.2 1.851c-2.288 0-3.682-1.538-3.682-4.658s1.396-4.679 3.684-4.679z"/><path data-name="Path 43" d="M239.535 8.673h4.575v-2.7h-4.575V3.079h6.448V.271h-9.482v14.392h9.629v-2.808h-6.592z"/><path data-name="Path 44" d="M257.17 6.531c-1.455-.561-3.2-.749-4.388-1.185-.562-.209-1.165-.5-1.165-1.207 0-.853.916-1.311 2.329-1.311a4.779 4.779 0 013.557 1.435l2.121-1.851a6.845 6.845 0 00-5.532-2.287c-3.473 0-5.386 1.7-5.386 4.138 0 1.871 1.143 2.746 2.682 3.369 1.477.6 3.12.853 4.285 1.227.769.251 1.393.562 1.393 1.477 0 1.144-1 1.851-2.87 1.851a5.618 5.618 0 01-4.264-1.809l-2.247 1.851a7.841 7.841 0 006.323 2.6c3.515 0 5.99-1.54 5.99-4.513a3.831 3.831 0 00-2.828-3.785z"/><g data-name="Group 12"><path data-name="Path 45" d="M185.543 7.634c.325.133.659.248.994.352l2.066-2.188a13.745 13.745 0 01-1.667-.45c-.562-.209-1.164-.5-1.164-1.206 0-.853.916-1.31 2.328-1.31a4.78 4.78 0 013.556 1.435l2.12-1.851a6.842 6.842 0 00-5.53-2.286c-3.472 0-5.385 1.7-5.385 4.137 0 1.869 1.142 2.744 2.682 3.367z"/><path data-name="Path 46" d="M191.322 6.532a11.1 11.1 0 00-1.116-.356L188.1 8.408c.629.154 1.222.292 1.725.453.769.25 1.393.562 1.393 1.477 0 1.144-1 1.851-2.868 1.851a5.615 5.615 0 01-4.263-1.809l-2.246 1.851a7.838 7.838 0 006.32 2.6c3.514 0 5.989-1.539 5.989-4.512a3.83 3.83 0 00-2.828-3.787z"/></g>
  </g>
</svg>