<svg id="Layer_1" data-name="Layer 1" xmlns="http://www.w3.org/2000/svg" viewBox="0 0 49.3 33.99"><defs><style>.cls-1{fill:#e2e7ed}</style></defs>
  <path class="cls-1" d="M458 522.06a.78.78 0 0 0-.24-.24l-5.65-5.66-5.66 5.66a1.2 1.2 0 1 0 1.45 1.92 1.36 1.36 0 0 0 .24-.24l2.76-2.77v13.35a1.21 1.21 0 1 0 2.41 0v-13.35l2.77 2.77a1.2 1.2 0 1 0 1.92-1.44Z" transform="translate(-427.58 -501.3)"/><path class="cls-1" d="M466.15 509.56h-.41a14 14 0 0 0-26.66 3.64 9.08 9.08 0 1 0-4.84 17.5 8.59 8.59 0 0 0 2.19.32h10.74v-3.54a5 5 0 0 1-5.12-8.18l7.76-7.76 2.31-2.39 2.31 2.31 7.76 7.76a5 5 0 0 1-5.12 8.26V531h9.08a10.73 10.73 0 1 0 0-21.46Z" transform="translate(-427.58 -501.3)"/>
</svg>