<svg xmlns="http://www.w3.org/2000/svg" viewBox="0 0 1115 480">
  <path d="M59.19 406.27c4.12-2.41 6.19-6.45 6.19-11.95 0-10.49-7.39-16.25-18.31-16.25H20.16v59.49h26.91c13.07 0 20.46-6.36 20.46-17.27 0-7.23-3.27-11.61-8.34-14.02zm-26.74-16.85h14.88c3.78 0 6.27 2.15 6.27 6.1 0 4.22-2.92 6.63-6.27 6.63H32.45zM47 426.3H32.45v-13.93H46c5.76 0 9.62 1.89 9.62 7.14.04 4.39-2.79 6.79-8.62 6.79zM110.6 415.3c0 7.22-4.9 11.26-10.92 11.26-6.19 0-10.83-4-10.83-11.26v-37.23H76.3v37.23c0 15.21 10.66 22.78 23.38 22.78 12.89 0 23.55-7.57 23.55-22.78v-37.23H110.6zM136.21 378.07h12.64v59.49h-12.64zM175.16 378.07h-12.55v59.49h40.92v-11.61h-28.37v-47.88zM230.52 378.07H212.3v59.49h18.22c17.88 0 32.16-11.52 32.16-29.91s-14.1-29.58-32.16-29.58zm.09 48H225v-36.39h5.59c10.74 0 19.43 6.45 19.43 18.14S241.35 426 230.61 426zM337.38 406.27c4.12-2.41 6.19-6.45 6.19-11.95 0-10.49-7.39-16.25-18.31-16.25h-26.91v59.49h26.91c13.06 0 20.46-6.36 20.46-17.27 0-7.23-3.27-11.61-8.34-14.02zm-26.74-16.85h14.88c3.78 0 6.27 2.15 6.27 6.1 0 4.22-2.92 6.63-6.27 6.63h-14.88zm14.53 36.88h-14.53v-13.93h13.59c5.76 0 9.62 1.89 9.62 7.14 0 4.39-2.85 6.79-8.68 6.79zM367.81 412.8h18.92v-11.17h-18.92v-11.95h26.65v-11.61h-39.2v59.49h39.8v-11.61h-27.25V412.8zM421.89 378.07l-21.84 59.49h13.24l3.87-11.26H440l4 11.26h13.3l-22.09-59.49zm-.95 37.23l7.57-22.1 7.73 22.1zM495.22 415.3c0 7.22-4.91 11.26-10.92 11.26-6.19 0-10.83-4-10.83-11.26v-37.23h-12.56v37.23c0 15.21 10.67 22.78 23.39 22.78 12.89 0 23.55-7.57 23.55-22.78v-37.23h-12.63zM515.85 389.68h17.11v47.88h12.55v-47.88h17.02v-11.61h-46.68v11.61zM571.3 378.07h12.64v59.49H571.3zM597.69 437.56h12.55v-23.81h17.62V402.4h-17.62v-12.72h24.85v-11.61h-37.4v59.49zM677.38 415.3c0 7.22-4.9 11.26-10.92 11.26-6.19 0-10.83-4-10.83-11.26v-37.23h-12.55v37.23c0 15.21 10.66 22.78 23.38 22.78 12.9 0 23.55-7.57 23.55-22.78v-37.23h-12.63zM715.55 378.07H703v59.49h40.92v-11.61h-28.37v-47.88zM811 404c-6-2.32-13.23-3.1-18.14-4.9-2.32-.86-4.81-2.06-4.81-5 0-3.52 3.78-5.41 9.63-5.41a19.77 19.77 0 0114.7 5.93l8.76-7.65c-3.69-4.56-10.91-9.46-22.86-9.46-14.35 0-22.26 7-22.26 17.11 0 7.73 4.72 11.35 11.08 13.92 6.11 2.5 12.9 3.53 17.71 5.07 3.18 1 5.76 2.33 5.76 6.11 0 4.73-4.12 7.65-11.86 7.65a23.21 23.21 0 01-17.62-7.48l-9.29 7.66c4.82 6 13.59 10.74 26.13 10.74 14.53 0 24.77-6.36 24.77-18.65-.03-8.9-5.28-13.2-11.7-15.64zM857.83 378.07h-25.45v59.49h12.55V416h12.9c12.89 0 21.49-6.37 21.49-18.92s-8.6-19.01-21.49-19.01zm.25 27h-13.23v-15.65h13.23c5.59 0 9.37 2.41 9.37 7.74s-3.78 7.91-9.37 7.91zM898.66 378.07l-21.83 59.49h13.23l3.87-11.26h22.87l4 11.26h13.32L912 378.07zm-.95 37.23l7.57-22.1 7.72 22.1zM964.26 388.56c6.62 0 10.4 3.18 13.58 8.34l9.11-6.79c-4-7.65-11.18-13.16-22.61-13.16-16.07 0-27.85 10.75-27.85 30.87 0 20.28 11.87 30.86 27.77 30.86 9.62 0 17.19-4 22.43-12.47l-9.2-6.7c-3.52 5.16-7.3 7.65-13.23 7.65-9.46 0-15.22-6.36-15.22-19.25s5.76-19.35 15.22-19.35zM1010.25 412.8h18.91v-11.17h-18.91v-11.95h26.65v-11.61h-39.2v59.49h39.8v-11.61h-27.25V412.8zM1083.15 404c-6-2.32-13.24-3.1-18.14-4.9-2.33-.86-4.82-2.06-4.82-5 0-3.52 3.79-5.41 9.63-5.41a19.75 19.75 0 0114.7 5.93l8.77-7.65c-3.7-4.56-10.92-9.46-22.87-9.46-14.35 0-22.26 7-22.26 17.11 0 7.73 4.72 11.35 11.09 13.92 6.1 2.5 12.89 3.53 17.71 5.07 3.17 1 5.76 2.33 5.76 6.11 0 4.73-4.13 7.65-11.86 7.65a23.21 23.21 0 01-17.63-7.48l-9.28 7.66c4.81 6 13.58 10.74 26.13 10.74 14.53 0 24.76-6.36 24.76-18.65 0-8.9-5.25-13.2-11.69-15.64zM434.4 212.07c0-29.75-14.54-47.34-36.86-56.12 18.93-8.8 29.08-25.7 29.08-50 0-40.91-28.06-62.21-69-62.21H256.21v234h101.44c49.35-.07 76.75-24.08 76.75-65.67zM290 75.14h68.63c20.62 0 35.5 11.15 35.5 33.81 0 23.33-15.89 35.16-35.5 35.16H290zm0 171.42v-74.05h63.56c30.77 0 48.35 11.84 48.35 37.53 0 23.67-14.88 36.52-44.63 36.52zM614.93 156c18.93-8.8 29.07-25.7 29.07-50 0-40.91-28.06-62.21-69-62.21H473.6v234H575c49.36 0 76.75-24 76.75-65.6.03-29.87-14.51-47.46-36.82-56.19zM507.4 75.14H576c20.63 0 35.51 11.15 35.51 33.81 0 23.33-15.89 35.16-35.51 35.16h-68.6zm67.29 171.42H507.4v-74.05H571c30.77 0 48.35 11.84 48.35 37.53-.03 23.67-14.9 36.52-44.66 36.52zM729.86 158a173 173 0 0021.14 6.7l23.81-25.22c-10.64-2.19-20.74-4.49-29.41-7.88-11.83-4.73-22.31-11.83-22.31-26.71 0-19.61 18.93-32.46 49.36-32.46 29.75 0 50 12.17 63.57 27.39l24-21.3c-13.86-17.92-41.25-37.2-86.22-37.2-53.42 0-83.85 27.05-83.85 64.92.05 27.05 15.23 41.93 39.91 51.76zM772.12 280.37c53.08 0 93.66-24 93.66-71.34 0-33.14-19.95-48.35-42.26-57.14a176.82 176.82 0 00-23.27-7l-24.11 25.53c11 2.37 21.61 4.76 30.8 8.16 14.88 5.41 25.37 13.19 25.37 30.77 0 26-23.34 40.57-58.16 40.57-33.48 0-58.16-13.53-74.39-32.8l-25.69 21c18.26 23.66 51.39 42.25 98.05 42.25z"/>
</svg>