<svg xmlns="http://www.w3.org/2000/svg" width="64" height="64"><path d="M32 0a32 32 0 1 0 32 32A32 32 0 0 0 32 0Zm2.124 49.127a3.039 3.039 0 0 1-2.13.879 3 3 0 0 1-2.11-5.12 3.1 3.1 0 0 1 4.24 0 3.018 3.018 0 0 1 0 4.24ZM37.1 33.422c-3.1 3.1-3.1 4.332-3.1 5.76v.826a2 2 0 0 1-4 0v-.825c0-2.448.315-4.634 4.27-8.59 3.266-3.266 3.716-5.1 3.716-6.6 0-.061-.068-5.985-5.986-5.985-5.728 0-6.982 4.32-6.982 5.984a2 2 0 0 1-4 0c0-3.86 2.981-9.984 10.982-9.984 7.275 0 9.986 6.124 9.986 9.984 0 3.184-1.462 6.008-4.886 9.43Z" fill="#d9d9d9" opacity=".75"/></svg>