<svg id="Layer_1" data-name="Layer 1" xmlns="http://www.w3.org/2000/svg" viewBox="0 0 15 15"><defs><style>.cls-1{fill:#739B7E}</style></defs>
  <path class="cls-1" d="M702.62 518.64c.88-1 3.55-4.06 6-6.87h-10.95v15H704a5.43 5.43 0 0 1-1.38-8.13ZM707.31 516.57a4.69 4.69 0 0 1 3.19 1l2.06-4.37a.85.85 0 0 0-.34-1.09l-.38-.22a.84.84 0 0 0-1.1.21l-3.44 4.47Z" transform="translate(-697.67 -511.77)"/><path class="cls-1" d="M712.21 525.76h-3c0-1.74 1.88-2.93 1.88-4.85a3.38 3.38 0 0 0-3.57-3.34c-5.63 0-4.57 9.15 1.88 9.2h2.8a.51.51 0 0 0 0-1Z" transform="translate(-697.67 -511.77)"/>
</svg>