<svg data-name="Layer 1" xmlns="http://www.w3.org/2000/svg" viewBox="0 0 15 15">
  <path d="M12.75 0H2.25L0 2.25v10.5L2.25 15h10.5L15 12.75V2.25Zm-8.2 3.39a3.81 3.81 0 0 1 5.9 0 5.05 5.05 0 0 1 3.05 2.3h-12a5.08 5.08 0 0 1 3.05-2.3ZM2.3 12a.54.54 0 0 1-.54-.53.85.85 0 0 1 .25-.52 1.11 1.11 0 0 0 .27-.42 1.2 1.2 0 0 0 .26.42.85.85 0 0 1 .25.52.54.54 0 0 1-.49.53Zm1-2.41a.54.54 0 0 1-.54-.54.82.82 0 0 1 .25-.51 1.11 1.11 0 0 0 .27-.42 1.2 1.2 0 0 0 .26.42.82.82 0 0 1 .25.51.54.54 0 0 1-.45.54Zm1 2.41a.54.54 0 0 1-.54-.53.85.85 0 0 1 .25-.52 1.11 1.11 0 0 0 .27-.42 1.25 1.25 0 0 0 .27.42.85.85 0 0 1 .25.52.54.54 0 0 1-.42.53Zm1-2.41a.54.54 0 0 1-.42-.5.82.82 0 0 1 .25-.51 1.11 1.11 0 0 0 .27-.42 1.11 1.11 0 0 0 .27.42.82.82 0 0 1 .25.51.54.54 0 0 1-.5.5Zm1 2.41a.54.54 0 0 1-.54-.53.85.85 0 0 1 .25-.52 1.11 1.11 0 0 0 .27-.42 1.11 1.11 0 0 0 .27.42.85.85 0 0 1 .25.52.54.54 0 0 1-.34.53Zm1-2.41a.54.54 0 0 1-.54-.54.82.82 0 0 1 .25-.51 1.11 1.11 0 0 0 .27-.42 1.11 1.11 0 0 0 .27.42.82.82 0 0 1 .25.51.54.54 0 0 1-.3.54Zm1 2.41a.54.54 0 0 1-.54-.53.85.85 0 0 1 .25-.52 1.11 1.11 0 0 0 .27-.42 1.11 1.11 0 0 0 .27.42.85.85 0 0 1 .25.52.54.54 0 0 1-.26.53Zm1-2.41a.54.54 0 0 1-.54-.54.82.82 0 0 1 .25-.51 1.11 1.11 0 0 0 .27-.42 1.11 1.11 0 0 0 .27.42.82.82 0 0 1 .25.51.54.54 0 0 1-.22.54Zm1 2.41a.54.54 0 0 1-.54-.53.85.85 0 0 1 .25-.52 1.11 1.11 0 0 0 .27-.42 1.11 1.11 0 0 0 .27.42.85.85 0 0 1 .25.52.54.54 0 0 1-.18.53Zm1-2.41a.54.54 0 0 1-.54-.54.82.82 0 0 1 .25-.51 1.11 1.11 0 0 0 .27-.42 1.11 1.11 0 0 0 .27.42.82.82 0 0 1 .25.51.54.54 0 0 1-.14.54Zm1 2.41a.54.54 0 0 1-.54-.53.85.85 0 0 1 .25-.52 1.25 1.25 0 0 0 .27-.42 1.11 1.11 0 0 0 .27.42.85.85 0 0 1 .25.52.54.54 0 0 1-.1.53Zm.45-5.13H1.88a.42.42 0 1 1 0-.84h11.29a.42.42 0 0 1 0 .84Z" fill="#739B7E"/>
</svg>