<svg id="Layer_1" data-name="Layer 1" xmlns="http://www.w3.org/2000/svg" viewBox="0 0 58.23 66.59"><defs><style>.cls-1{fill:#505050}</style></defs>
  <path class="cls-1" d="M218 413.69h-56.3a1 1 0 00-1 1v64.61a1 1 0 001 1h3.12a1 1 0 001-1v-2.15h48.08v2.15a1 1 0 001 1h3.1a1 1 0 001-1v-64.64a.94.94 0 00-1-.97zm-27.17 5.08h3.26V422h-3.26zM197 424a2.14 2.14 0 01-3.82 0H197zm-.93-2v-3.25h4.3V422zm-5.21 2h.25a4.12 4.12 0 008 0h3.38v19.94h-11.6V424zm23.06 3.95l-3.41-5.45a1 1 0 00-.83-.45h-7.36v-3.25h11.6zm-.47 2.93l-2.77 1.12v-5.58zm-4.74 1.51v11.55h-4.31v-9.84zm-4.29-.39v-5.58l2.78 4.46zm.78-8h3.51v5.62zm-14.34 21.89h18.84a1 1 0 001-1v-10.8l3.25-1.3v18.43h-23.08zm0 7.29h23.06v8.47h-23.05zm0 10.43h23.06v8.47h-23.05zm-27 14.72h-1.17v-1.17h1.17zm25-3.13h-26.14v-59.56h26.19zm28.14 3.13h-1.17v-1.17H217zm0-3.13h-26.13V474h24a1 1 0 001-1v-55.2a1 1 0 00-1-1h-24v-1.17h26.2v59.54z" transform="translate(-160.77 -413.69)"/><path class="cls-1" d="M204.49 466.85h-4.17a1 1 0 100 1.95h4.17a1 1 0 001-1 1 1 0 00-1-.95zM204.49 455.38h-4.17a1 1 0 100 1.95h4.17a1 1 0 001-1 1 1 0 00-1-.95zM164.88 474h18.76a1 1 0 001-1v-55.2a1 1 0 00-1-1h-18.76a1 1 0 00-1 1V473a1 1 0 001 1zm1-55.25h16.82v53.3h-16.85zM186.76 450a1 1 0 001-1v-6.25a1 1 0 10-2 0V449a1 1 0 001 1z" transform="translate(-160.77 -413.69)"/>
</svg>