<svg id="Layer_1" data-name="Layer 1" xmlns="http://www.w3.org/2000/svg" viewBox="0 0 15 15"><defs><style>.cls-1{fill:#739B7E}</style></defs>
  <path class="cls-1" d="M337.44 284.91h-11.12a1.94 1.94 0 0 0-1.94 1.94v4.81h15v-4.81a1.94 1.94 0 0 0-1.94-1.94Zm-2.72 4.29H329a.91.91 0 1 1 0-1.82h5.68a.91.91 0 1 1 0 1.82ZM324.38 298a1.94 1.94 0 0 0 1.94 1.94h11.12a1.94 1.94 0 0 0 1.94-1.94v-4.81h-15Zm4.66-2.34h5.68a.91.91 0 1 1 0 1.82H329a.91.91 0 1 1 0-1.82Z" transform="translate(-324.38 -284.91)"/>
</svg>