<svg data-name="Layer 1" xmlns="http://www.w3.org/2000/svg" viewBox="0 0 65.45 65.45">
  <path d="M63.59 0H1.93A1.93 1.93 0 000 1.93v61.59a1.92 1.92 0 001.93 1.93h61.59a1.92 1.92 0 001.93-1.93V1.93A1.87 1.87 0 0063.59 0zm-2 30.83H50.14V3.93h11.45zM34.74 19.31h11.4v26.9h-11.4zm11.52-3.93H34.74V3.93h11.4v11.45zM30.88 30.83H19.31V3.93h11.43v26.9zm-15.5 15.38H3.93v-26.9h11.45zm3.93-11.52h11.43v26.9H19.31zm15.43 15.42h11.4v11.45h-11.4zM15.43 3.9v11.45H3.93V3.93zM3.93 50.11h11.45v11.45H3.93zm46.21 11.45v-26.9h11.45v26.9z" fill="#505050"/>
</svg>