<svg id="Layer_1" data-name="Layer 1" xmlns="http://www.w3.org/2000/svg" viewBox="0 0 74.22 53.35"><defs><style>.cls-1{fill:#505050}</style></defs>
  <path class="cls-1" d="M1027.74 442.68a1.17 1.17 0 00-1 1.32 1.15 1.15 0 001.32 1 4.44 4.44 0 002.15-.91v4.69l2.32 2v-6.71a4.45 4.45 0 002.14.91h.18a1.16 1.16 0 00.17-2.31c-2.07-.32-2.45-3.12-2.49-3.52v-.9a4.45 4.45 0 002.14.91h.18a1.16 1.16 0 00.17-2.31c-2.07-.32-2.45-3.12-2.49-3.52v-.9a4.56 4.56 0 002.14.92h.18a1.16 1.16 0 00.17-2.31c-2.22-.34-2.5-3.54-2.5-3.57a1.16 1.16 0 00-1.15-1.08 1.16 1.16 0 00-1.16 1.08s-.25 3.23-2.5 3.57a1.16 1.16 0 00.35 2.3 4.55 4.55 0 002.15-.92v.85c0 .09-.27 3.23-2.5 3.57a1.17 1.17 0 00-1 1.32 1.15 1.15 0 001.32 1 4.44 4.44 0 002.15-.91v.85c.05.1-.18 3.24-2.44 3.58zM985 450.13l16.26-12.38 8.3 6.39 1.81-1.53-9.4-7.24a1.16 1.16 0 00-1.41 0l-16.29 12.4-4.2-3a1.16 1.16 0 00-1.33 0l-16.4 11.42a1.16 1.16 0 101.33 1.9l15.72-11 4.24 3a1.14 1.14 0 001.37.04zM1004.77 447.71a1.16 1.16 0 00-1.35 0l-9.83 7.33a1.16 1.16 0 00-.23 1.63 1.15 1.15 0 001.62.23l9.17-6.84 2.33 1.6a1.19 1.19 0 001.41-.07l9.43-8 16.79 14.67a1.16 1.16 0 001.53-1.75l-17.55-15.33a1.17 1.17 0 00-1.51 0l-9.52 8.07zM963 463h.29a1.16 1.16 0 000-2.32H963a1.16 1.16 0 000 2.32zM975.47 463a1.16 1.16 0 000-2.32h-5.14a1.16 1.16 0 000 2.32zM981.25 463a1.16 1.16 0 000-2.32h-.64a1.16 1.16 0 100 2.32zM1029.45 460.64h-5.14a1.16 1.16 0 100 2.32h5.14a1.16 1.16 0 100-2.32zM998.6 460.64a1.16 1.16 0 100 2.32h.65a1.16 1.16 0 000-2.32zM993.46 463a1.16 1.16 0 000-2.32h-5.14a1.16 1.16 0 000 2.32zM1016.6 460.64a1.16 1.16 0 100 2.32h.64a1.16 1.16 0 000-2.32zM1006.31 460.64a1.16 1.16 0 100 2.32h5.15a1.16 1.16 0 000-2.32zM1034.88 460.64h-.29a1.16 1.16 0 100 2.32h.29a1.16 1.16 0 100-2.32zM964.13 465.28H963a1.16 1.16 0 000 2.32h1.16a1.16 1.16 0 000-2.32zM976.71 466.44a1.16 1.16 0 00-1.16-1.16h-8.16a1.16 1.16 0 100 2.32h8.16a1.16 1.16 0 001.16-1.16zM984.17 466.44a1.16 1.16 0 001.16 1.16h8.16a1.16 1.16 0 000-2.32h-8.16a1.16 1.16 0 00-1.16 1.16zM1003.27 467.6h8.16a1.16 1.16 0 100-2.32h-8.16a1.16 1.16 0 100 2.32zM1029.37 465.28h-8.16a1.16 1.16 0 000 2.32h8.16a1.16 1.16 0 100-2.32zM1019.11 466.44a1.16 1.16 0 00-1.16-1.16h-2.17a1.16 1.16 0 100 2.32h2.22a1.16 1.16 0 001.11-1.16zM1000 465.28h-2.17a1.16 1.16 0 000 2.32h2.17a1.16 1.16 0 000-2.32zM982.07 465.28h-2.17a1.16 1.16 0 100 2.32h2.17a1.16 1.16 0 000-2.32zM1034.88 465.28h-1.16a1.16 1.16 0 000 2.32h1.16a1.16 1.16 0 100-2.32zM972 469.92h-.29a1.16 1.16 0 100 2.32h.29a1.16 1.16 0 100-2.32zM980.86 469.92h-4.71a1.16 1.16 0 100 2.32h4.71a1.16 1.16 0 100-2.32zM1021.7 469.92h-4.7a1.16 1.16 0 100 2.32h4.71a1.16 1.16 0 000-2.32zM985.57 469.92h-.52a1.16 1.16 0 100 2.32h.52a1.16 1.16 0 000-2.32zM999.19 469.92h-.53a1.16 1.16 0 100 2.32h.53a1.16 1.16 0 000-2.32zM1008.09 469.92h-4.71a1.16 1.16 0 100 2.32h4.71a1.16 1.16 0 000-2.32zM994.47 469.92h-4.71a1.16 1.16 0 100 2.32h4.71a1.16 1.16 0 000-2.32zM1012.8 469.92h-.52a1.16 1.16 0 100 2.32h.52a1.16 1.16 0 100-2.32zM1026.18 469.92h-.29a1.16 1.16 0 000 2.32h.29a1.16 1.16 0 000-2.32zM978.05 425a1.16 1.16 0 001.16-1.16v-3.82a1.16 1.16 0 00-2.32 0v3.82a1.16 1.16 0 001.16 1.16zM968.2 427.79a1.16 1.16 0 101.61-1.66l-2.38-2.31a1.16 1.16 0 10-1.61 1.67zM987.26 428.11a1.13 1.13 0 00.8-.32l2.38-2.3a1.16 1.16 0 00-1.61-1.67l-2.38 2.31a1.14 1.14 0 000 1.62 1.18 1.18 0 00.85.36zM972.13 424.71a1.18 1.18 0 001.52.61 1.15 1.15 0 00.61-1.52l-1.28-3a1.16 1.16 0 00-2.14.91zM982.64 425.33a1.18 1.18 0 001.52-.61l1.3-3a1.16 1.16 0 00-.61-1.52 1.14 1.14 0 00-1.52.6l-1.3 3a1.16 1.16 0 00.61 1.53zM989 431.37a1.18 1.18 0 001.51.64l3.1-1.26a1.16 1.16 0 10-.87-2.15l-3.1 1.26a1.16 1.16 0 00-.64 1.51zM962.56 431.15l3.14 1.18a1.16 1.16 0 00.82-2.17l-3.14-1.16a1.16 1.16 0 00-.82 2.17zM978.05 426.73a9.56 9.56 0 00-9.54 9.56 1.16 1.16 0 102.32 0 7.22 7.22 0 0114.44 0 1.16 1.16 0 102.31 0 9.55 9.55 0 00-9.53-9.56zM1007 428.17c.41 0 1.27.07 1.39 1.82a1.15 1.15 0 00.72 1 1.19 1.19 0 001.21-.21c.07-.06 1.69-1.48 3-.51a1.16 1.16 0 001.36-1.89 4.3 4.3 0 00-4.39-.31 3.55 3.55 0 00-3.18-2.21 1.16 1.16 0 00-.14 2.32z" transform="translate(-961.81 -418.89)"/>
</svg>