<svg data-name="Layer 1" xmlns="http://www.w3.org/2000/svg" viewBox="0 0 19.18 12.88">
  <path d="M12.74.03h-6.3a6.44 6.44 0 0 0 0 12.88h6.3a6.44 6.44 0 1 0 0-12.88Zm-.3 9.9A3.25 3.25 0 0 1 9.99 8.6l1-.76a2 2 0 0 0 1.47.87h.07a2 2 0 0 0 2-2v-.06a1.86 1.86 0 0 0-1.94-1.81c-1 0-1.59.85-2.4 2.25S8.56 9.96 6.75 9.96a3.27 3.27 0 0 1-3.2-3.25 3.14 3.14 0 0 1 4.22-2.9l-.17-.53 1-.23.61 2.64-2.4.6-.21-1.2.71-.12a1.13 1.13 0 0 0-.54-.13 1.88 1.88 0 0 0-2 1.87 2 2 0 0 0 2 2c1 0 1.59-.85 2.39-2.25s1.64-2.87 3.46-2.87h.05a3.1 3.1 0 0 1 3.12 3.09 3.26 3.26 0 0 1-3.35 3.22Z" fill="#739B7E"/>
</svg>