<svg data-name="Layer 1" xmlns="http://www.w3.org/2000/svg" viewBox="0 0 59.55 61.25">
  <path d="M56.15 1.7a3.43 3.43 0 00-2.93 1.7h-9V1.7a1.69 1.69 0 00-1.7-1.7h-5.11a1.69 1.69 0 00-1.7 1.7v1.7h-3.88a3.43 3.43 0 00-2.93-1.7 3.41 3.41 0 000 6.81 3.43 3.43 0 002.93-1.7h3.88v6.8h-25.5A10.2 10.2 0 000 23.8v27.22a10.2 10.2 0 0010.21 10.21 38.18 38.18 0 0013.73-2.5l4.42-1.63a15.24 15.24 0 015.24-.95h15.74a1.69 1.69 0 001.7-1.71v-5.1a1.69 1.69 0 00-1.7-1.7h-16a18.49 18.49 0 00-5.79 1 15.59 15.59 0 01-4.69.75H13.6a1.69 1.69 0 01-1.7-1.7V27.22a1.69 1.69 0 011.7-1.7h22.12v5.51a7.82 7.82 0 00-2.93 1.77 7.46 7.46 0 00-2.17 5.31v1a1.68 1.68 0 001.7 1.7h15.32a1.69 1.69 0 001.7-1.7v-1a7.47 7.47 0 00-2.18-5.31 7.7 7.7 0 00-2.92-1.77v-5.51h3.4a1.69 1.69 0 001.7-1.7v-8.51a1.69 1.69 0 00-1.7-1.7h-3.4V6.8h9a3.43 3.43 0 002.93 1.7 3.41 3.41 0 000-6.81zM40.83 13.61h-1.7V3.4h1.7zm5.11 8.51H34.03v-5.11h11.91zM34.1 37.43a4 4 0 011.15-2.18 4.23 4.23 0 012.93-1.22h3.68a4.19 4.19 0 014.08 3.4zm6.73-6.8h-1.7v-5.11h1.7zm6.81 20.41v1.7h-14a18.63 18.63 0 00-6.4 1.16l-4.42 1.63a34.59 34.59 0 01-12.59 2.32 6.58 6.58 0 01-3.47-1l4.63-4.62a4.83 4.83 0 002.17.47h9.19a18.49 18.49 0 005.79-.95 15.59 15.59 0 014.69-.75zm-44.24 0V23.8a6.58 6.58 0 011-3.47l4.62 4.63a4.83 4.83 0 00-.47 2.17v20.42a5.7 5.7 0 00.39 2.25l-4.62 4.63a5.82 5.82 0 01-.92-3.39zm8-28.45l-4.62-4.62a6.55 6.55 0 013.47-1h20.41v5.11H13.61a5.74 5.74 0 00-2.18.51z" fill="#505050"/>
</svg>